<svg version="1.2" xmlns="http://www.w3.org/2000/svg" viewBox="0 0 441 337" width="441" height="337"><style>tspan{white-space:pre}.a{fill:#fff}.b{fill:#d8dce5}.c{fill:#a6aaad}.d{fill:#f0f0f0}.e{fill:#999595}.f{font-size: 26px;fill: #6c6969;font-family: "'  Kanit"}.g{fill:#455a64}.h{fill:#b0a0a0}.i{fill:#6c6969}.j{fill:#afafaf}.k{font-size: 14px;fill: #ffffff;font-family: "'  Kanit"}.l{fill:#dd8762}.m{fill:#263238}.n{fill:#ffbe9d}.o{fill:#464343}.p{fill:#eb996e}.q{fill:#e0e0e0}.r{fill:#244a96}.s{fill:#565454}.t{fill:#8cb0ff}.u{fill:#a09898}.v{fill:#807b7b}.w{fill:#333131}</style><path class="a" d="m-593-7h500v500h-500z"/><path class="b" d="m59.4 284.6c0 0-24.1-32.4-15.8-75.6 8.9-46.2 66.5-52.5 95-97 28.4-44.6 76.1-61.7 125.6-53.6 60.8 9.9 67.9 92.2 89.8 113.8 22 21.5 59.3 77 15.9 112.4z"/><path class="c" d="m368.5 285.1h-308.1c-0.4 0-0.8-0.2-1-0.5l-0.3-0.5h311.4l-0.7 0.6c-0.4 0.2-0.8 0.4-1.3 0.4z"/><path class="d" d="m199.8 64.9h-158.5c-2.7 0-5 2.3-5 5v233.3c0 2.7 2.3 5 5 5h158.5c2.7 0 5-2.3 5-5v-233.3c0-2.7-2.3-5-5-5z"/><path class="a" d="m45.1 106.4h93.2v135.6h-93.2z"/><path class="e" d="m198.8 64.9h-158.5c-2.7 0-5 2.3-5 5v28.8h168.5v-28.8c0-2.7-2.3-5-5-5z"/><text style="transform:matrix(1,0,0,1,54.983,135.032)" ><tspan x="0" y="0" class="f">T
</tspan></text><path class="g" d="m73.4 119.8h55.1v2.8h-55.1z"/><path class="g" d="m73.4 125.5h37.1v2.8h-37.1z"/><path class="g" d="m73.4 131.6h55.1v2.8h-55.1z"/><path class="g" d="m54.9 137.6h73.6v2.8h-73.6z"/><path class="g" d="m54.9 143.6h62.8v2.8h-62.8z"/><path class="g" d="m54.9 149.5h68.7v2.8h-68.7z"/><path class="g" d="m54.9 192.3h73.6v2.8h-73.6z"/><path class="g" d="m54.9 198.2h62.8v2.8h-62.8z"/><path class="g" d="m54.9 204.2h68.7v2.8h-68.7z"/><path class="g" d="m54.9 215.9h62.8v2.8h-62.8z"/><path class="g" d="m54.9 221.8h68.7v2.8h-68.7z"/><path class="h" d="m55 156.5h73.5v31.1h-73.5z"/><path class="h" d="m144.3 106.4h53.8v13.4h-53.8z"/><path class="i" d="m144.3 205.9h53.8v13.4h-53.8z"/><path class="h" d="m45.1 247.6h153v13.3h-153z"/><path class="j" d="m144.3 122.6h53.8v79.4h-53.8z"/><path class="j" d="m189.2 297.3h-135.2c-5 0-8.9-4-8.9-8.9v-27.5h153v27.5c0 4.9-4 8.9-8.9 8.9z"/><text style="transform:matrix(1,0,0,1,49.419,87.395)" ><tspan x="0" y="0" class="k">BLOG
</tspan></text><path class="l" d="m394.5 155.1v-2.7c1.2-0.2 3.5-0.8 3.2-1.8-0.4-1.2-3.2-0.9-3.2-0.9 0 0 3.6-0.4 3.1-1.9-0.3-1.1-2.1-1.3-3.1-1.3v-0.4c2.4-0.4 3.2-1.9 2.8-3-0.5-1-2.8-0.8-2.8-0.8 0 0-3 12.2-3 12.5 0 0.3 1.7 4.4 3 4.2 1.3-0.2 3.9-1.9 2.9-3.4-1.1-1.5-2.9-0.5-2.9-0.5z"/><path class="g" d="m378.8 168.8c0 0.3 0.2 0.6 0.6 0.6h14c0.7 0 1.4-0.6 1.4-1.4l0.3-34.7c0-0.7-0.3-1.3-0.9-1.7q-0.2-0.1-0.4-0.1l-13.8 1.4c-0.3 0-0.5 0.3-0.5 0.6z"/><path class="h" d="m391.9 134.8v31.3c0 0.4-0.3 0.7-0.7 0.7l-9.8-0.2c-0.4 0-0.7-0.2-0.7-0.6l0.4-30.5c0-0.3 0.2-0.6 0.5-0.6l9.6-0.8c0.3 0 0.7 0.3 0.7 0.7z"/><path class="m" d="m394.2 131.6q-0.2-0.1-0.4-0.1h-0.1l-0.4 37.9h0.1c0.7 0 1.4-0.6 1.4-1.4l0.3-34.7c0-0.7-0.3-1.3-0.9-1.7z"/><path class="m" d="m381.8 133.8c0 0.3-0.1 0.5-0.4 0.5-0.2 0-0.3-0.2-0.3-0.5 0-0.3 0.1-0.5 0.3-0.5 0.3 0 0.4 0.2 0.4 0.5z"/><path class="m" d="m383.6 134c-0.2 0-0.4-0.2-0.4-0.4 0-0.2 0.1-0.4 0.3-0.4l5.5-0.4c0.3 0 0.4 0.1 0.4 0.3 0.1 0.2-0.1 0.4-0.3 0.4l-5.5 0.5z"/><path class="n" d="m381.8 169.4c1.7-3.3 1.2-6.5 1.2-8.1 0.1-1.8 3.2-5.5 3.6-9 0.4-3.5-1.7-5-2.9-2.7-1.2 2.3-4.5 6.1-4.5 6.1v-10.5c0 0-0.9 1.1-1.7 1.7-0.8 0.7-4.5 4.1-4.4 9.2 0.1 5.1-1 15.2-1.9 17.9-0.9 2.8-2.5 4.7-2.5 4.7l9 4.4c0 0 3.9-1.8 5.3-3.1 1.5-1.3 2.2-6.7 2.2-6.7l1.4-3.9z"/><path class="l" d="m386.6 169.4h-4.8l4.1 2.1z"/><path class="l" d="m376.9 161.5c-0.1-1.1 0.1-2.2 0.5-3.2 0.3-1 1-1.9 1.8-2.6-0.4 1-0.8 1.9-1.1 2.9-0.4 0.9-0.8 1.9-1.2 2.9z"/><path class="l" d="m383.1 163c0.5 1.8 0.2 3.8-0.4 5.6-0.3 0.8-0.7 1.7-1.3 2.5q-0.8 1.2-1.8 2.1c0.4-0.8 0.9-1.6 1.3-2.4 0.5-0.8 0.8-1.7 1.1-2.5q0.5-1.3 0.7-2.6c0.2-0.9 0.3-1.8 0.4-2.7z"/><path class="o" d="m381.4 183.7l-11.2-6.1c-0.7-0.4-1.7-0.2-2.1 0.5l-16 23.7c-1.4 2.2-2 2.4-4.1 1.1l-16.5-8.4c-10-4.6-16.6-9.2-26.4-9.2h-11.7q0 0-1.5 0c-19.2 0.4-35.9 13-41.8 31.2l-20.7 64.1h17.8l21.8-62.1-0.6 62.1h51.6v-67.1l13.4 5.9c8.4 4.4 21.8 9.6 29-3.1q0.5-0.8 1-1.6l18.6-28.6c0.6-0.9 0.3-1.9-0.6-2.4z"/><path class="p" d="m278 167.1v21.6c0.3 8.2 7.1 14.8 15.4 14.8 8.3 0 15.1-6.6 15.4-14.8v-21.6z"/><path class="m" d="m257.1 143.4c0 0-6.5-7-6.5-25.4 0-18.5 15.9-31 30.5-32.2 14.6-1.2 17-6.9 20.3-4.2 3.2 2.7-6.4 8.7-6.4 8.7 0 0 27.5-10.5 30.8-6.9 3.3 3.6-10.7 8.7-10.7 8.7 0 0 16.7 4.2 19.7 13.2 3 8.9-4.8 9.2-4.8 9.2 0 0 5.5 14.3-1.4 33.6-7.6 21.1-55.2 23.5-56.1 22.9-0.9-0.6-15.4-27.6-15.4-27.6z"/><path class="n" d="m325.1 139q-0.1 0-0.1 0c-0.1 1-0.1 1.6-0.1 1.6l-1.3 10c-0.1 1.4-2.1 1.8-2.8 0.5-1.7-3.1-3.3-8.9-0.9-17.9-1.3-2.1-2.3-4.5-2.9-7l-0.3-1.6c-6.8 1.8-7.1 0.1-11.6-2 0 0-0.1 0.1 0 0.1 1.6 1.5 6.2 6 2.9 8.6-3.6 2.7-15.2-6.7-17.4-8.3-0.1 0-0.2 0.1-0.2 0.2 0.5 1.4 2.2 6.3-0.2 7.2-3.7 1.3-10.3-8.8-12.2-11.8-0.1-0.2-0.4-0.1-0.3 0.1 0.3 2 0.8 6.5-1.7 7.5-2.3 1.1-4.9-3.8-6.1-6.6-0.2-0.5-0.9-0.4-0.9 0.1-0.5 4.3-2.1 8.4-3.7 11.7 3.2 10 1.5 16.3-0.3 19.7-0.7 1.3-2.7 0.9-2.9-0.5l-1.2-10c0 0 0-0.6-0.1-1.6-6.4 0.1-11.5 5.3-11.5 11.7 0 6.4 5.2 11.6 11.7 11.6q0.2 0 0.4 0c2.6 15.1 15.7 27.6 31.6 27.6 15.8 0 28.9-12.5 31.6-27.6q0.2 0 0.5 0c6.4 0 11.6-5.2 11.6-11.6 0-6.5-5.2-11.7-11.6-11.7z"/><path class="m" d="m282.4 165.5c1.9 1.9 3.9 3.5 6.1 4.5 1.1 0.6 2.3 1 3.5 1.2 1.2 0.3 2.4 0.3 3.8 0.3-1.2 0.5-2.6 0.9-4 0.8-1.3 0-2.7-0.4-3.9-1q-1.9-0.9-3.3-2.4c-0.9-1-1.7-2.1-2.2-3.4z"/><path class="m" d="m278.9 147.3c0 1.5-1.3 2.8-2.8 2.8-1.5 0-2.7-1.3-2.7-2.8 0-1.5 1.2-2.7 2.7-2.7 1.5 0 2.8 1.2 2.8 2.7z"/><path class="m" d="m273.4 144.6c-0.1-1.1 0.6-2.3 1.6-3 1-0.7 2.2-1 3.4-1.1 0.6 0 1.2 0 1.8 0.2 0.6 0.2 1.2 0.4 1.7 0.8 0.9 0.8 1.6 2 1.5 3.1q-1.1-1.3-2.3-1.8c-0.9-0.3-1.7-0.5-2.6-0.4-1 0-1.9 0.1-2.8 0.4-0.9 0.3-1.7 0.9-2.3 1.8z"/><path class="m" d="m272 138.1c1.8-0.3 5.5-0.8 10.6-0.7 0.6 0 1-0.5 0.7-0.9-0.8-0.9-2.5-2.3-6-2.1-4 0.2-5.6 1.8-6.2 2.9-0.2 0.5 0.3 0.9 0.9 0.8z"/><path class="m" d="m302.1 147.3c0 1.5 1.2 2.8 2.7 2.8 1.5 0 2.8-1.3 2.8-2.8 0-1.5-1.3-2.7-2.8-2.7-1.5 0-2.7 1.2-2.7 2.7z"/><path class="m" d="m312.2 144.6c0.1-1.1-0.7-2.3-1.6-3-1.1-0.7-2.3-1-3.4-1.1-0.6 0-1.3 0-1.8 0.2-0.7 0.2-1.2 0.4-1.7 0.8-1 0.8-1.6 2-1.6 3.1q1.1-1.3 2.4-1.8c0.8-0.3 1.6-0.5 2.6-0.4 1 0 1.9 0.1 2.8 0.4 0.8 0.3 1.6 0.9 2.3 1.8z"/><path class="m" d="m312.4 138.1c-1.9-0.3-5.5-0.8-10.6-0.7-0.7 0-1.1-0.5-0.8-0.9 0.8-0.9 2.6-2.3 6.1-2.1 3.9 0.2 5.5 1.8 6.2 2.9 0.2 0.5-0.3 0.9-0.9 0.8z"/><path class="m" d="m293.7 145.3c0.9 2 1.8 4.1 2.6 6.2 0.8 2.1 1.5 4.3 2.2 6.4l0.5 1.6q0.3 1 0 2.1c-0.4 1.3-1.8 2.3-3.1 2.2-2.3-0.1-4.6-0.2-6.8-0.5 2.2-0.3 4.5-0.4 6.7-0.6 0.9 0 1.7-0.7 1.9-1.5q0.2-0.6 0-1.3l-0.5-1.6c-0.7-2.1-1.4-4.3-2-6.4q-0.9-3.3-1.5-6.6z"/><path class="l" d="m258.2 143.7c-1.5 0.7-2.9 1.7-3.8 2.9-1 1.3-1.3 2.9-1.4 4.4 0 1.6 0.4 3.2 1.3 4.4 0.9 1.3 2.3 2.3 3.9 2.8-1.7-0.2-3.3-1-4.5-2.3-1.1-1.4-1.6-3.2-1.6-4.9 0-1.7 0.5-3.5 1.7-4.8 1.1-1.4 2.8-2.2 4.4-2.5z"/><path class="l" d="m327.4 158.2c1.5-0.7 2.8-1.7 3.8-2.9 0.9-1.3 1.3-2.8 1.3-4.4 0-1.6-0.4-3.2-1.3-4.4-0.9-1.3-2.3-2.3-3.8-2.8 1.6 0.2 3.3 1 4.4 2.3 1.1 1.4 1.6 3.2 1.6 4.9 0 1.7-0.5 3.5-1.7 4.8-1.1 1.4-2.7 2.2-4.3 2.5z"/><path class="g" d="m292.1 124.2c1.6 1 3.2 2.1 4.8 3.1q2.6 1.5 5.1 2.7 1.3 0.5 2.6 0.9c0.9 0.2 1.8 0.3 2.5 0.1 0.3-0.1 0.6-0.3 0.8-0.6 0.2-0.3 0.4-0.6 0.4-0.9 0.1-0.7-0.2-1.6-0.6-2.3-0.9-1.6-2.1-3.1-3.3-4.5-1.3-1.4-2.7-2.8-4.1-4.1q-4.2-3.9-8.6-7.6 4.9 3 9.4 6.7 2.2 1.9 4.3 4c1.3 1.4 2.6 2.9 3.6 4.8 0.5 0.9 0.9 1.9 0.8 3.2-0.1 0.6-0.4 1.2-0.8 1.6-0.3 0.5-0.9 0.9-1.5 1-1.2 0.3-2.3 0.1-3.2-0.2-1-0.2-1.9-0.6-2.8-1.1-3.5-1.8-6.6-4.2-9.4-6.8z"/><path class="g" d="m304.8 122.1q1.9 1.2 3.8 1.8c1.3 0.4 2.7 0.7 4 0.7 0.3 0 0.7-0.1 1-0.1q0.5 0 1-0.1 0.5-0.1 1-0.1 0.5-0.2 1-0.3 0.5-0.1 1-0.3l1-0.4c0.6-0.2 1.3-0.5 2-0.8q-0.8 0.8-1.7 1.5c-0.6 0.4-1.2 0.8-1.9 1.1-1.4 0.7-2.9 0.9-4.4 1-1.6 0-3.1-0.4-4.4-1.1-1.4-0.7-2.6-1.7-3.4-2.9z"/><path class="g" d="m285.2 115.4c1.1 0.8 2.1 1.9 2.9 2.9q1.3 1.7 2.3 3.6c0.6 1.2 1.2 2.5 1.4 4 0.1 0.7 0.1 1.4 0 2.2-0.2 0.7-0.5 1.4-1 1.9 0.5-1.4 0.2-2.6-0.2-3.9q-0.6-1.8-1.5-3.6c-1.2-2.3-2.6-4.6-3.9-7.1z"/><path class="g" d="m304.4 90.8c1.2-0.2 2.4-0.2 3.6-0.2q1.8 0.1 3.6 0.4 3.6 0.5 7.1 1.7c2.2 0.8 4.5 1.8 6.5 3 1.1 0.6 2.1 1.3 3.1 2 1 0.7 1.9 1.5 2.8 2.3-2.1-1.3-4.1-2.6-6.2-3.6-2.1-1.1-4.3-2-6.6-2.8-2.2-0.8-4.5-1.4-6.8-1.9-2.3-0.5-4.7-0.8-7.1-0.9z"/><path class="g" d="m330 114.5c-1.7 0.7-3.6 0.9-5.5 0.9q-2.7 0-5.4-0.6-2.7-0.6-5.3-1.7-1.2-0.6-2.4-1.2-1.2-0.7-2.3-1.5c0.9 0.3 1.7 0.6 2.6 0.8l2.5 0.8c0.9 0.2 1.7 0.5 2.6 0.7q1.3 0.4 2.6 0.6 2.6 0.6 5.2 1c1.8 0.1 3.5 0.3 5.4 0.2z"/><path class="g" d="m273.4 125.3c-1.1-0.8-2-1.9-2.7-3.1-0.7-1.2-1.3-2.4-1.8-3.7q-0.7-2-1.2-4-0.2-1-0.3-2c-0.1-0.7-0.1-1.4-0.2-2.1q0.7 2 1.3 3.9c0.4 1.3 0.8 2.6 1.3 3.8q0.7 1.9 1.6 3.7c0.6 1.2 1.2 2.4 2 3.5z"/><path class="g" d="m349.4 309.2h-115.5c-3.7 0-6.8-2.7-7.2-6.4l-6.4-58.6c-0.5-4.3 2.9-8.1 7.2-8.1h128.3c4.4 0 7.7 3.8 7.3 8.1l-6.5 58.6c-0.4 3.7-3.5 6.4-7.2 6.4z"/><path class="m" d="m362.8 241.3c-0.9-3-3.6-5.2-7-5.2h-128.3c-3.3 0-6.1 2.2-7 5.2z"/><path class="q" d="m298 276c0 3.5-2.9 6.3-6.3 6.3-3.5 0-6.3-2.8-6.3-6.3 0-3.5 2.8-6.3 6.3-6.3 3.4 0 6.3 2.8 6.3 6.3z"/><path class="e" d="m209.8 41.8h64.6v36.6h-64.6z"/><path class="i" d="m245.2 66.7c-5 1.8-10.5-0.9-12.3-6-1.7-5 0.9-10.6 6-12.3 5.1-1.7 10.6 0.9 12.4 6 1.7 5-1 10.5-6.1 12.3z"/><path class="d" d="m240.4 55.5v4.5c0 0.8 0.9 1.2 1.5 0.8l3-2.3c0.5-0.4 0.5-1.2 0-1.6l-3-2.2c-0.7-0.4-1.5 0-1.5 0.8z"/><path class="r" d="m575 91h-53.7c-0.5 0-0.8-0.3-0.8-0.7 0-0.5 0.3-0.8 0.8-0.8h53.7c0.4 0 0.8 0.3 0.8 0.8 0 0.4-0.4 0.7-0.8 0.7z"/><path class="d" d="m269 71.5h-37.4v1.5h37.4c0.4 0 0.8-0.3 0.8-0.7 0-0.5-0.4-0.8-0.8-0.8z"/><path class="s" d="m234.5 71.5h-16.2c-0.5 0-0.8 0.3-0.8 0.8 0 0.4 0.3 0.7 0.8 0.7h16.2z"/><path class="s" d="m240.4 72.3c0 1-0.8 1.8-1.8 1.8-1.1 0-1.9-0.8-1.9-1.8 0-1.1 0.8-1.9 1.9-1.9 1 0 1.8 0.8 1.8 1.9z"/><path class="t" d="m239.5 72.3c0 0.4-0.4 0.8-0.9 0.8-0.5 0-0.9-0.4-0.9-0.8 0-0.5 0.4-0.9 0.9-0.9 0.5 0 0.9 0.4 0.9 0.9z"/><path class="e" d="m330.4 266.2v21c0 1.9 1.5 3.3 3.3 3.3h38.3c0.7 0 1.4 0.3 2 0.7l8.4 6.4c2.1 1.7 5.3 0.1 5.3-2.6v-4.5-15.4-8.9c0-1.8-1.5-3.3-3.3-3.3h-50.7c-1.8 0-3.3 1.5-3.3 3.3z"/><path class="d" d="m350.3 279.3c-1.2 0-2.2-1-2.2-2.2 0-1.2 1-2.2 2.2-2.2 1.2 0 2.2 1 2.2 2.2 0 1.2-1 2.2-2.2 2.2z"/><path class="d" d="m362 277.1c0 1.2-1 2.2-2.2 2.2-1.2 0-2.2-1-2.2-2.2 0-1.2 1-2.2 2.2-2.2 1.2 0 2.2 1 2.2 2.2z"/><path class="d" d="m371.5 277.1c0 1.2-1 2.2-2.2 2.2-1.2 0-2.2-1-2.2-2.2 0-1.2 1-2.2 2.2-2.2 1.2 0 2.2 1 2.2 2.2z"/><path class="e" d="m409.7 100.4v21.8c0 1.6-1.3 2.9-2.9 2.9h-43.4c-0.6 0-1.3 0.2-1.8 0.6l-9.1 7c-1.9 1.4-4.7 0.1-4.7-2.3v-5.3-15.4-9.3c0-1.6 1.3-2.9 2.9-2.9h56.1c1.6 0 2.9 1.3 2.9 2.9z"/><path class="i" d="m364.7 111.2c0 3.1-2.5 5.7-5.7 5.7-3.1 0-5.6-2.6-5.6-5.7 0-3.2 2.5-5.7 5.6-5.7 3.2 0 5.7 2.5 5.7 5.7z"/><path class="a" d="m368.8 109.4l1-2.8h1.5l-0.8 2.8zm2.2 0l0.9-2.8h1.5l-0.7 2.8z"/><path class="a" d="m397.2 116.3l0.9-2.8h1.5l-0.7 2.8zm2.1 0l0.9-2.8h1.6l-0.8 2.8z"/><path class="i" d="m374.3 107.5l29.3 0.1v1.3l-29.3-0.1z"/><path class="i" d="m368.8 110.7h33.3v1.3h-33.3z"/><path class="i" d="m368.8 113.9h27.5v1.3h-27.5z"/><path class="u" d="m157.3 150.4h71.6v40.6h-71.6z"/><path class="v" d="m160.7 154h64.3v33.2h-64.3z"/><path class="w" d="m160.7 187.2l18.2-24.5c2-2.6 6-2.6 8 0l13.4 17.6 7.3-7c2.2-2 5.6-1.7 7.4 0.7l10 13.2z"/><path class="a" d="m206.2 164.2c0 2.9-2.4 5.3-5.4 5.3-2.9 0-5.3-2.4-5.3-5.3 0-2.9 2.4-5.3 5.3-5.3 3 0 5.4 2.4 5.4 5.3z"/></svg>